<svg width="280" height="225" viewBox="0 0 280 225" fill="none" xmlns="http://www.w3.org/2000/svg">
<path d="M22.6275 192.341C22.6275 192.341 -3.27773 175.34 0.347937 137.576C4.36207 95.7586 20.8375 91.1884 33.3065 85.0491C47.4587 78.0796 59.5697 76.8761 75.8014 42.4323C97.2279 -3.04083 135.785 0.0440298 150.379 0.0440298C199.935 0.0440298 199.341 49.1809 223.265 73.6389C245.789 96.6573 295.009 146.556 239.261 190.757C210.233 213.768 69.0452 221.088 22.6275 192.341Z" fill="#B3FFD1"/>
<path d="M229.854 101.197C252.76 101.197 271.328 82.6287 271.328 59.7231C271.328 36.8175 252.76 18.2489 229.854 18.2489C206.948 18.2489 188.38 36.8175 188.38 59.7231C188.38 82.6287 206.948 101.197 229.854 101.197Z" fill="#32B768"/>
<path d="M223.86 76.5708L208.192 64.0257C206.554 62.7079 206.036 60.3619 207.133 58.5719C208.458 56.4011 211.33 55.9517 213.249 57.4903L227.493 68.8929L245.827 46.3848C247.267 44.6177 249.872 44.3511 251.639 45.7907C253.406 47.2303 253.672 49.8353 252.233 51.6024L232.65 75.6339C230.471 78.3074 226.548 78.7264 223.86 76.5708Z" fill="white"/>
<path d="M189.385 213.768H60.3848C57.338 213.768 54.8777 211.3 54.8777 208.261V105.333H194.892V208.261C194.892 211.3 192.432 213.768 189.385 213.768Z" fill="#32B768"/>
<path d="M168.324 76.8453H138.672H111.106H81.4456L54.8777 105.333H111.106H138.672H194.892L168.324 76.8453Z" fill="#0E7F3D"/>
<path d="M168.324 76.846H81.4455V62.7318C81.4455 60.4391 83.304 58.5882 85.5891 58.5882H164.181C166.473 58.5882 168.324 60.4467 168.324 62.7318V76.846Z" fill="#32B768"/>
<path d="M79.0006 159.155C82.5342 159.155 85.3988 155.206 85.3988 150.334C85.3988 145.463 82.5342 141.514 79.0006 141.514C75.4669 141.514 72.6023 145.463 72.6023 150.334C72.6023 155.206 75.4669 159.155 79.0006 159.155Z" fill="#0E7F3D"/>
<path d="M79.0004 190.576C78.0102 190.576 77.2104 189.776 77.2104 188.786V154.693H80.7828V188.794C80.7828 189.776 79.983 190.576 79.0004 190.576Z" fill="#0E7F3D"/>
<path d="M99.2084 190.576C98.2181 190.576 97.4184 189.776 97.4184 188.786V154.693H100.991V188.794C100.991 189.776 100.191 190.576 99.2084 190.576Z" fill="#0E7F3D"/>
<path d="M105.606 143.198V152.552C105.606 155.896 102.887 158.607 99.5509 158.607H98.8654C95.5215 158.607 92.8099 155.896 92.8099 152.552V143.198C92.8099 143.107 92.8175 143.023 92.8403 142.939C92.9622 142.437 93.404 142.056 93.9448 142.056C94.4856 142.056 94.935 142.437 95.0569 142.939C95.0797 143.023 95.0873 143.107 95.0873 143.198V150.282C95.0873 151.044 95.7119 151.668 96.4736 151.668H96.7021C97.4638 151.668 98.0884 151.044 98.0884 150.282V143.198C98.0884 143.107 98.096 143.023 98.1189 142.939C98.2408 142.437 98.6902 142.056 99.231 142.056C99.7718 142.056 100.214 142.437 100.335 142.939C100.358 143.023 100.366 143.107 100.366 143.198V150.328C100.366 151.097 100.99 151.722 101.76 151.722H101.958C102.727 151.722 103.344 151.097 103.344 150.328V143.198C103.344 143.107 103.352 143.023 103.375 142.939C103.496 142.437 103.946 142.056 104.487 142.056C105.027 142.056 105.477 142.437 105.599 142.939C105.599 143.015 105.606 143.107 105.606 143.198Z" fill="#0E7F3D"/>
<path d="M228.11 219.221L212.747 224.971L186.217 222.999L179.986 221.391L178.379 220.98L185.089 217.568L221.27 218.962L227.98 219.213L228.11 219.221Z" fill="#E06738"/>
<path d="M268.282 211.467L245.774 210.172L228.636 213.767L221.262 218.97L221.11 219.084L212.739 224.979L186.4 219.678L179.986 221.407L166.672 224.987L149.389 220.843L119.439 223.144L119.569 208.458L110.139 195.586H124.878C129.341 193.179 135.846 192.516 135.846 192.516L144.864 197.071L227.112 197.52L241.904 192.851L268.282 211.467Z" fill="#FDF0B9"/>
<path d="M229.58 179.193H140.606C139.814 184.053 140.606 197.878 140.606 197.878C140.606 205.647 160.525 211.939 185.097 211.939C209.669 211.939 229.587 205.639 229.587 197.878C230.197 186.864 229.58 179.193 229.58 179.193Z" fill="#EDB82C"/>
<path d="M228.476 176.931C232.695 176.71 236.146 181.159 234.721 183.863C233.297 186.567 228.041 188.6 226.305 189.111C222.359 190.276 225.216 196.355 217.759 194.557C213.904 193.628 212.777 196.233 210.637 198.327C208.504 200.422 202.806 198.96 197.467 196.652C192.127 194.344 187.496 200.841 182.34 200.216C177.183 199.592 172.552 197.071 169.17 198.327C165.788 199.584 163.831 198.327 159.733 194.344C155.635 190.36 151.544 195.814 147.805 194.344C144.065 192.874 145.489 189.316 141.399 187.427C137.301 185.538 133.21 184.845 133.21 182.499C133.21 177.198 141.33 175.873 141.33 175.873L228.476 176.931Z" fill="#E06738"/>
<path d="M229.58 170.876C229.58 187.176 209.662 190.726 185.089 190.726C160.517 190.726 140.599 187.176 140.599 170.876C140.599 154.576 160.517 141.36 185.089 141.36C209.662 141.36 229.58 154.576 229.58 170.876Z" fill="#EDB82C"/>
<path d="M162.947 150.638C163.709 150.638 164.326 150.328 164.326 149.945C164.326 149.563 163.709 149.252 162.947 149.252C162.186 149.252 161.568 149.563 161.568 149.945C161.568 150.328 162.186 150.638 162.947 150.638Z" fill="white"/>
<path d="M171.691 155.978C172.453 155.978 173.07 155.668 173.07 155.285C173.07 154.902 172.453 154.592 171.691 154.592C170.93 154.592 170.313 154.902 170.313 155.285C170.313 155.668 170.93 155.978 171.691 155.978Z" fill="white"/>
<path d="M177.435 150.638C178.196 150.638 178.813 150.328 178.813 149.945C178.813 149.563 178.196 149.252 177.435 149.252C176.673 149.252 176.056 149.563 176.056 149.945C176.056 150.328 176.673 150.638 177.435 150.638Z" fill="white"/>
<path d="M187.108 145.68C187.87 145.68 188.487 145.37 188.487 144.987C188.487 144.604 187.87 144.294 187.108 144.294C186.347 144.294 185.729 144.604 185.729 144.987C185.729 145.37 186.347 145.68 187.108 145.68Z" fill="white"/>
<path d="M194.634 152.688C195.395 152.688 196.012 152.377 196.012 151.994C196.012 151.612 195.395 151.301 194.634 151.301C193.872 151.301 193.255 151.612 193.255 151.994C193.255 152.377 193.872 152.688 194.634 152.688Z" fill="white"/>
<path d="M209.502 152.688C210.263 152.688 210.881 152.377 210.881 151.994C210.881 151.612 210.263 151.301 209.502 151.301C208.741 151.301 208.123 151.612 208.123 151.994C208.123 152.377 208.741 152.688 209.502 152.688Z" fill="white"/>
<path d="M156.534 162.323C157.295 162.323 157.912 162.012 157.912 161.629C157.912 161.247 157.295 160.936 156.534 160.936C155.772 160.936 155.155 161.247 155.155 161.629C155.155 162.012 155.772 162.323 156.534 162.323Z" fill="white"/>
<path d="M172.879 168.82C173.641 168.82 174.258 168.51 174.258 168.127C174.258 167.744 173.641 167.434 172.879 167.434C172.118 167.434 171.501 167.744 171.501 168.127C171.501 168.51 172.118 168.82 172.879 168.82Z" fill="white"/>
<path d="M185.722 159.642C186.483 159.642 187.1 159.332 187.1 158.949C187.1 158.566 186.483 158.256 185.722 158.256C184.96 158.256 184.343 158.566 184.343 158.949C184.343 159.332 184.96 159.642 185.722 159.642Z" fill="white"/>
<path d="M194.634 166.74C195.395 166.74 196.012 166.43 196.012 166.047C196.012 165.664 195.395 165.354 194.634 165.354C193.872 165.354 193.255 165.664 193.255 166.047C193.255 166.43 193.872 166.74 194.634 166.74Z" fill="white"/>
<path d="M208.367 163.953C209.128 163.953 209.746 163.642 209.746 163.26C209.746 162.877 209.128 162.566 208.367 162.566C207.605 162.566 206.988 162.877 206.988 163.26C206.988 163.642 207.605 163.953 208.367 163.953Z" fill="white"/>
<path d="M135.656 209.548L149.381 202.51L165.796 209.7C165.796 209.7 172.323 208.969 175.34 208.687C178.356 208.405 182.622 207.971 184.343 208.9C186.072 209.829 188.936 211.917 191.099 211.81C193.262 211.703 201.138 207.773 204.307 208.9C207.476 210.027 217.667 209.403 221.11 208.9L204.018 214.857H149.442L135.656 209.548Z" fill="#FDF0B9"/>
<path d="M268.282 211.468L247.404 219.625L228.11 219.222L227.981 219.214L221.27 218.963L228.643 213.768L245.781 210.173L268.282 211.468Z" fill="#E06738"/>
<path d="M221.674 205.534C221.514 205.534 221.362 205.435 221.308 205.268C221.247 205.07 221.354 204.856 221.552 204.788C221.643 204.757 230.563 201.893 237.487 202.16C237.7 202.167 237.86 202.343 237.852 202.556C237.845 202.769 237.654 202.914 237.456 202.922C230.662 202.655 221.872 205.481 221.78 205.511C221.75 205.534 221.712 205.534 221.674 205.534Z" fill="black"/>
<path d="M145.977 204.102C145.916 204.102 145.847 204.087 145.786 204.056C139.197 200.339 132.403 200.156 132.335 200.156C132.121 200.149 131.954 199.981 131.961 199.768C131.969 199.555 132.152 199.418 132.35 199.395C132.418 199.395 139.403 199.585 146.159 203.394C146.342 203.5 146.411 203.729 146.304 203.912C146.236 204.033 146.106 204.102 145.977 204.102Z" fill="black"/>
<path d="M128.762 210.92C128.732 210.92 128.709 210.92 128.679 210.912L119.492 208.817C119.287 208.772 119.157 208.566 119.203 208.36C119.249 208.155 119.454 208.025 119.66 208.071L128.846 210.165C129.052 210.211 129.181 210.417 129.136 210.623C129.09 210.798 128.93 210.92 128.762 210.92Z" fill="black"/>
<path d="M30.3891 41.769C29.993 40.2075 27.0072 39.5296 23.0007 39.8571C22.2161 39.918 21.4849 39.4839 21.1726 38.7679C19.5731 35.0813 17.5546 32.7733 15.9931 33.1618C14.4316 33.5579 13.7537 36.5437 14.0812 40.5502C14.1422 41.3348 13.708 42.066 12.992 42.3783C9.30543 43.9779 6.99749 45.9964 7.38596 47.5578C7.78204 49.1193 10.7679 49.7972 14.7744 49.4697C15.5589 49.4087 16.2902 49.8429 16.6025 50.5589C18.202 54.2455 20.2205 56.5534 21.782 56.165C23.3434 55.7689 24.0214 52.7831 23.6938 48.7765C23.6329 47.992 24.0671 47.2608 24.7831 46.9485C28.4697 45.3413 30.7852 43.3304 30.3891 41.769Z" fill="#32B768"/>
<path d="M279.981 140.835C280.24 139.251 277.765 137.431 273.964 136.143C273.225 135.892 272.723 135.199 272.723 134.414C272.715 130.4 271.793 127.475 270.201 127.209C268.617 126.95 266.797 129.425 265.509 133.226C265.258 133.965 264.565 134.468 263.78 134.468C259.766 134.475 256.841 135.397 256.575 136.989C256.316 138.573 258.791 140.394 262.592 141.681C263.331 141.932 263.834 142.625 263.834 143.41C263.841 147.424 264.763 150.349 266.355 150.616C267.939 150.875 269.76 148.399 271.047 144.598C271.298 143.859 271.991 143.357 272.776 143.357C276.798 143.349 279.722 142.427 279.981 140.835Z" fill="#EDB82C"/>
<path d="M13.2891 191.671C18.5086 191.671 22.7398 187.44 22.7398 182.22C22.7398 177.001 18.5086 172.77 13.2891 172.77C8.06964 172.77 3.83844 177.001 3.83844 182.22C3.83844 187.44 8.06964 191.671 13.2891 191.671Z" fill="#32B768"/>
</svg>
