<svg width="280" height="273" viewBox="0 0 280 273" fill="none" xmlns="http://www.w3.org/2000/svg">
<path d="M9.61754 155.944C9.61754 155.944 8.33008 86.1788 95.0202 97.8555C168.424 107.735 142.398 111.535 188.166 108.879C198.859 108.263 240.675 93.7516 257.537 106.17C278.727 121.772 299.613 175.998 246.487 232.075C183.91 298.121 47.5713 232.674 47.5713 232.674C47.5713 232.674 7.49857 207.667 9.61754 155.944Z" fill="#B3FFD1"/>
<path d="M142.281 272.524C200.578 272.524 247.837 260.383 247.837 245.406C247.837 230.429 200.578 218.289 142.281 218.289C83.9849 218.289 36.7262 230.429 36.7262 245.406C36.7262 260.383 83.9849 272.524 142.281 272.524Z" fill="#0E7F3D"/>
<path d="M142.281 264.495C206.088 264.495 257.814 252.354 257.814 237.377C257.814 222.401 206.088 210.26 142.281 210.26C78.4739 210.26 26.7479 222.401 26.7479 237.377C26.7479 252.354 78.4739 264.495 142.281 264.495Z" fill="#32B768"/>
<path d="M203.177 210.054C203.177 236.179 166.18 233.658 120.537 233.658C74.8942 233.658 37.8971 236.17 37.8971 210.054C37.8971 183.938 74.8942 162.757 120.537 162.757C166.171 162.766 203.177 183.938 203.177 210.054Z" fill="#F0C7A9"/>
<mask id="mask0_23_165" style="mask-type:alpha" maskUnits="userSpaceOnUse" x="37" y="162" width="167" height="72">
<path d="M203.177 210.054C203.177 236.179 166.18 233.658 120.537 233.658C74.8942 233.658 37.8971 236.17 37.8971 210.054C37.8971 183.938 74.8942 162.757 120.537 162.757C166.171 162.766 203.177 183.938 203.177 210.054Z" fill="#FFC5BB"/>
</mask>
<g mask="url(#mask0_23_165)">
<path d="M69.5029 198.243H68.4747C66.5703 198.243 65.0236 196.696 65.0236 194.792V155.309C65.0236 153.405 66.5703 151.858 68.4747 151.858H69.5029C71.4073 151.858 72.9541 153.405 72.9541 155.309V194.792C72.9541 196.705 71.4073 198.243 69.5029 198.243Z" fill="#E06738"/>
<path d="M92.2842 192.252H91.256C89.3516 192.252 87.8048 190.706 87.8048 188.801V149.319C87.8048 147.414 89.3516 145.867 91.256 145.867H92.2842C94.1886 145.867 95.7353 147.414 95.7353 149.319V188.801C95.7353 190.706 94.1886 192.252 92.2842 192.252Z" fill="#E06738"/>
<path d="M114.243 185.949H113.215C111.31 185.949 109.764 184.402 109.764 182.498V143.015C109.764 141.111 111.31 139.564 113.215 139.564H114.243C116.147 139.564 117.694 141.111 117.694 143.015V182.498C117.694 184.411 116.147 185.949 114.243 185.949Z" fill="#E06738"/>
<path d="M136.479 185.949H135.451C133.546 185.949 131.999 184.402 131.999 182.498V143.015C131.999 141.111 133.546 139.564 135.451 139.564H136.479C138.383 139.564 139.93 141.111 139.93 143.015V182.498C139.93 184.411 138.392 185.949 136.479 185.949Z" fill="#E06738"/>
</g>
<path d="M189.676 144.957C163.738 144.957 142.71 152.387 142.71 161.551V233.113H177.57L177.758 249.171C181.566 249.52 185.554 249.707 189.676 249.707C215.613 249.707 236.642 242.278 236.642 233.113V161.551C236.642 152.387 215.613 144.957 189.676 144.957Z" fill="#FDF0B9"/>
<path d="M178.029 177.591V199.997C178.029 199.997 180.551 203.805 184.359 195.428C188.168 187.059 190.448 187.247 191.02 188.204C191.593 189.151 191.682 192.799 193.792 194.149C195.902 195.499 197.735 190.689 199.076 190.305C200.426 189.92 201.284 190.403 202.25 192.039C204.36 195.616 201.204 209.268 207.167 207.382C209.081 206.774 212.022 200.533 210.619 190.797C210.27 188.409 211.2 183.68 211.87 183.68C212.541 183.68 213.024 187.336 214.946 186.854C216.868 186.371 217.834 182.24 219.756 182.625C221.678 183.009 225.29 185.468 226.775 179.647C227.365 177.35 230.718 178.297 231.486 179.361C232.255 180.416 236.252 180.327 236.681 176.67C237.11 173.013 236.681 161.578 236.681 161.578L178.029 177.591Z" fill="#EDB82C"/>
<path d="M189.676 178.145C215.614 178.145 236.642 170.716 236.642 161.551C236.642 152.386 215.614 144.957 189.676 144.957C163.737 144.957 142.71 152.386 142.71 161.551C142.71 170.716 163.737 178.145 189.676 178.145Z" fill="#EDB82C"/>
<path d="M189.69 178.088C211.755 178.088 230.267 172.711 235.303 165.464" stroke="white" stroke-width="2.2294" stroke-linecap="round"/>
<mask id="mask1_23_165" style="mask-type:alpha" maskUnits="userSpaceOnUse" x="142" y="161" width="95" height="89">
<path d="M142.723 233.036V161.474H236.656V233.036C236.656 242.201 215.627 249.63 189.69 249.63C185.568 249.63 181.58 249.443 177.771 249.094L177.584 233.036H142.723Z" fill="#C4C4C4"/>
</mask>
<g mask="url(#mask1_23_165)">
<path d="M238.957 216.743C238.957 226.354 216.891 234.15 189.684 234.15C162.468 234.15 140.402 226.354 140.402 216.743C140.402 215.589 140.715 214.463 141.323 213.372C145.776 221.365 165.74 227.4 189.684 227.4C213.618 227.4 233.583 221.365 238.036 213.372C238.635 214.463 238.957 215.589 238.957 216.743Z" fill="#EDB82C"/>
<path d="M238.957 196.688C238.957 199.049 237.634 201.293 235.22 203.349C233.816 204.547 232.037 205.674 229.953 206.729C221.021 211.19 206.323 214.105 189.684 214.105C173.045 214.105 158.328 211.19 149.406 206.729C147.322 205.674 145.543 204.547 144.139 203.349C141.725 201.293 140.402 199.049 140.402 196.688C140.402 195.678 140.652 194.677 141.117 193.711C142.298 196.143 144.908 198.396 148.619 200.381H148.628C150.97 201.633 153.778 202.759 156.925 203.752C165.633 206.496 177.104 208.159 189.684 208.159C202.246 208.159 213.717 206.496 222.425 203.752C225.581 202.759 228.38 201.633 230.722 200.381H230.731C234.442 198.396 237.052 196.143 238.233 193.711C238.706 194.677 238.957 195.678 238.957 196.688Z" fill="#EDB82C"/>
</g>
<mask id="mask2_23_165" style="mask-type:alpha" maskUnits="userSpaceOnUse" x="142" y="161" width="48" height="89">
<path d="M142.724 161.705H189.982L177.801 177.744V249.18L142.724 248.796V161.705Z" fill="#FC9AEA"/>
</mask>
<g mask="url(#mask2_23_165)">
<path d="M142.724 161.551H189.982L177.801 177.591V249.421H142.724V161.551Z" fill="#EDB82C"/>
<path d="M184.602 168.632C184.602 168.632 181.678 167.452 180.626 167.801C179.582 168.149 178.457 168.695 177.792 168.632C177.135 168.579 174.346 167.407 173.293 167.729C172.25 168.051 168.327 168.954 167.626 168.632C166.924 168.31 163.613 167.291 162.66 167.676C161.697 168.06 159.43 169.178 158.566 168.704C157.703 168.23 154.032 166.969 153.681 168.203C153.33 169.437 153.681 172.995 153.681 173.773C153.681 174.551 152.674 174.22 152.386 177.224C152.098 180.228 153.537 180.658 153.105 182.374C152.674 184.091 152.017 189.527 152.35 191.387C152.674 193.246 152.134 195.535 152.26 198.539C152.386 201.543 151.378 202.518 152.242 205.388C153.105 208.267 151.963 210.699 151.891 213.131C151.819 215.563 152.539 216.135 152.827 219.425C153.114 222.715 151.675 224.575 151.891 225.719C152.107 226.864 151.63 230.44 151.873 232.3C152.116 234.159 152.071 235.447 151.801 237.736C151.531 240.025 151.801 242.895 151.801 242.895L151.891 249.103H181.961L184.602 168.632Z" fill="#FDF0B9"/>
<path d="M184.233 180.148C184.233 180.148 177.846 179.987 174.949 181.561C172.052 183.134 170.388 178.834 166.87 180.577C163.343 182.312 161.688 184.377 162.83 188.803C163.973 193.228 165.008 193.336 163.973 196.733C162.938 200.131 160.141 200.953 161.49 204.869C162.839 208.785 160.141 212.183 161.598 216.09C163.046 220.006 162.111 219.335 162.318 221.803C162.525 224.271 164.882 223.94 164.054 230.422C163.235 236.886 160.743 233.382 161.58 237.807C162.408 242.233 163.568 242.546 163.361 244.397C163.154 246.247 162.534 249.234 162.534 249.234H185.897L184.233 180.148Z" fill="#F0C7A9"/>
</g>
<path d="M145.793 161.167H191.065L185.771 167.306" stroke="white" stroke-width="2.2294" stroke-linecap="round" stroke-linejoin="round"/>
<path d="M171.053 229.083H89.7895C89.0653 233.526 89.7895 246.142 89.7895 246.142C89.7895 253.232 107.984 258.981 130.417 258.981C152.858 258.981 171.044 253.232 171.044 246.142C171.616 236.083 171.053 229.083 171.053 229.083Z" fill="#EDB82C"/>
<path d="M170.051 227.008C173.905 226.802 177.061 230.862 175.755 233.338C174.45 235.815 169.649 237.666 168.066 238.131C164.463 239.194 167.074 244.747 160.261 243.111C156.738 242.261 155.71 244.639 153.761 246.553C151.812 248.466 146.608 247.125 141.727 245.024C136.845 242.923 132.625 248.851 127.904 248.278C123.183 247.706 118.963 245.408 115.87 246.553C112.776 247.697 110.997 246.553 107.251 242.914C103.505 239.275 99.7765 244.255 96.3611 242.914C92.9457 241.573 94.251 238.318 90.5048 236.602C86.7586 234.885 83.0303 234.241 83.0303 232.104C83.0303 227.258 90.4422 226.051 90.4422 226.051L170.051 227.008Z" fill="#E06738"/>
<path d="M171.053 221.483C171.053 236.369 152.858 239.615 130.426 239.615C107.993 239.615 89.7986 236.369 89.7986 221.483C89.7986 206.596 107.993 194.526 130.426 194.526C152.858 194.526 171.053 206.596 171.053 221.483Z" fill="#EDB82C"/>
<path d="M110.202 202.993C110.898 202.993 111.463 202.709 111.463 202.358C111.463 202.008 110.898 201.724 110.202 201.724C109.506 201.724 108.941 202.008 108.941 202.358C108.941 202.709 109.506 202.993 110.202 202.993Z" fill="white"/>
<path d="M118.186 207.875C118.882 207.875 119.446 207.59 119.446 207.24C119.446 206.889 118.882 206.605 118.186 206.605C117.49 206.605 116.925 206.889 116.925 207.24C116.925 207.59 117.49 207.875 118.186 207.875Z" fill="white"/>
<path d="M123.434 202.993C124.131 202.993 124.695 202.709 124.695 202.358C124.695 202.008 124.131 201.724 123.434 201.724C122.738 201.724 122.174 202.008 122.174 202.358C122.174 202.709 122.738 202.993 123.434 202.993Z" fill="white"/>
<path d="M132.268 198.469C132.964 198.469 133.528 198.185 133.528 197.834C133.528 197.484 132.964 197.199 132.268 197.199C131.571 197.199 131.007 197.484 131.007 197.834C131.007 198.185 131.571 198.469 132.268 198.469Z" fill="white"/>
<path d="M139.134 204.87C139.831 204.87 140.395 204.586 140.395 204.236C140.395 203.885 139.831 203.601 139.134 203.601C138.438 203.601 137.874 203.885 137.874 204.236C137.874 204.586 138.438 204.87 139.134 204.87Z" fill="white"/>
<path d="M152.715 204.87C153.412 204.87 153.976 204.586 153.976 204.236C153.976 203.885 153.412 203.601 152.715 203.601C152.019 203.601 151.455 203.885 151.455 204.236C151.455 204.586 152.019 204.87 152.715 204.87Z" fill="white"/>
<path d="M104.345 213.668C105.042 213.668 105.606 213.384 105.606 213.033C105.606 212.683 105.042 212.399 104.345 212.399C103.649 212.399 103.085 212.683 103.085 213.033C103.085 213.384 103.649 213.668 104.345 213.668Z" fill="white"/>
<path d="M119.268 219.605C119.964 219.605 120.529 219.321 120.529 218.97C120.529 218.62 119.964 218.335 119.268 218.335C118.572 218.335 118.007 218.62 118.007 218.97C118.007 219.321 118.572 219.605 119.268 219.605Z" fill="white"/>
<path d="M131.007 211.219C131.704 211.219 132.268 210.935 132.268 210.584C132.268 210.234 131.704 209.949 131.007 209.949C130.311 209.949 129.747 210.234 129.747 210.584C129.747 210.935 130.311 211.219 131.007 211.219Z" fill="white"/>
<path d="M139.134 217.701C139.831 217.701 140.395 217.417 140.395 217.066C140.395 216.715 139.831 216.431 139.134 216.431C138.438 216.431 137.874 216.715 137.874 217.066C137.874 217.417 138.438 217.701 139.134 217.701Z" fill="white"/>
<path d="M151.678 215.152C152.375 215.152 152.939 214.868 152.939 214.518C152.939 214.167 152.375 213.883 151.678 213.883C150.982 213.883 150.418 214.167 150.418 214.518C150.418 214.868 150.982 215.152 151.678 215.152Z" fill="white"/>
<path d="M141.978 196.531C148.345 197.391 152.303 199.8 152.303 199.8" stroke="white" stroke-width="2" stroke-linecap="round"/>
<path d="M101.828 26.7156C112.914 21.6414 120.105 13.6042 117.889 8.76401C115.674 3.92377 104.891 4.1134 93.8054 9.18756C82.7195 14.2617 75.5286 22.2989 77.7441 27.1391C79.9595 31.9794 90.7424 31.7897 101.828 26.7156Z" fill="#0E7F3D"/>
<path d="M100.676 24.1881C106.599 21.4774 110.44 17.1833 109.256 14.5971C108.073 12.0108 102.312 12.1118 96.3896 14.8225C90.4673 17.5332 86.6259 21.8273 87.8097 24.4135C88.9934 26.9998 94.754 26.8989 100.676 24.1881Z" fill="black"/>
<path d="M109.257 14.5952L87.8024 24.4153L92.878 35.5045L114.333 25.6843L109.257 14.5952Z" fill="black"/>
<path d="M225.905 65.8831L44.0483 145.135C42.3406 137.776 41.4376 130.114 41.4376 122.246C41.4376 66.5537 86.5977 21.4026 142.281 21.4026C177.106 21.4026 207.799 39.0518 225.905 65.8831Z" fill="#32B768"/>
<path d="M25.1655 161.622C24.2088 159.932 20.5074 160.093 15.9565 161.756C15.0713 162.077 14.0789 161.8 13.4799 161.067C10.44 157.285 7.35541 155.238 5.6656 156.185C3.97578 157.142 4.13674 160.844 5.79973 165.395C6.1216 166.28 5.84442 167.272 5.11127 167.871C1.33825 170.911 -0.718161 173.996 0.229565 175.685C1.18623 177.375 4.88772 177.214 9.4386 175.551C10.3237 175.229 11.3162 175.507 11.9152 176.24C14.9551 180.013 18.0397 182.069 19.7295 181.121C21.4193 180.165 21.2584 176.463 19.5954 171.912C19.2735 171.027 19.5507 170.035 20.2838 169.436C24.0658 166.396 26.1222 163.32 25.1655 161.622Z" fill="#EDB82C"/>
<path d="M275.616 86.8406C276.098 84.963 273.318 82.5132 268.883 80.5462C268.016 80.1618 267.497 79.2766 267.578 78.3379C268.007 73.5098 267.202 69.8888 265.325 69.406C263.447 68.9232 260.997 71.7038 259.03 76.1384C258.646 77.0057 257.761 77.5242 256.822 77.4438C251.994 77.0146 248.373 77.8193 247.89 79.6969C247.407 81.5744 250.188 84.0242 254.623 85.9912C255.49 86.3757 256.008 87.2608 255.928 88.1996C255.499 93.0276 256.303 96.6486 258.181 97.1315C260.059 97.6143 262.508 94.8337 264.475 90.399C264.86 89.5318 265.745 89.0132 266.684 89.0937C271.512 89.5228 275.133 88.7182 275.616 86.8406Z" fill="#E06738"/>
<path d="M267.98 212.844C273.595 212.844 278.146 208.292 278.146 202.678C278.146 197.063 273.595 192.512 267.98 192.512C262.366 192.512 257.815 197.063 257.815 202.678C257.815 208.292 262.366 212.844 267.98 212.844Z" fill="#32B768"/>
</svg>
